<svg xmlns="http://www.w3.org/2000/svg" width="419.999" height="64"><path d="M89.741 51.597V18.021h5.051a22.123 22.123 0 015.376.522 8.079 8.079 0 013.417 1.761 9.14 9.14 0 012.242 3.2 9.666 9.666 0 01.849 3.914 7.93 7.93 0 01-2.764 6.111 8.12 8.12 0 014.219 3.194 9.011 9.011 0 011.567 5.263 8.939 8.939 0 01-2.786 6.654 9.144 9.144 0 01-3.765 2.327 21.916 21.916 0 01-5.724.631zm5.07-19.158H96.4a5.859 5.859 0 004.146-1.25 4.848 4.848 0 001.317-3.686 4.622 4.622 0 00-1.349-3.6 5.627 5.627 0 00-3.922-1.23h-1.781zm0 14.4h3.134q3.439 0 5.049-1.348a4.66 4.66 0 001.7-3.7 4.734 4.734 0 00-1.632-3.653q-1.591-1.459-5.682-1.459h-2.569zm40.524-3.397h-14.386l-3.743 8.155h-5.463l16.628-35.685 16.04 35.685h-5.55zm-2.068-4.762l-4.983-11.417-5.224 11.417zm34.343-15.657l-4.118 2.435a7.066 7.066 0 00-2.2-2.61 5.131 5.131 0 00-2.807-.7 5.188 5.188 0 00-3.5 1.2 3.706 3.706 0 00-1.393 2.959q0 2.457 3.656 3.958l3.352 1.37a14.309 14.309 0 015.992 4.038 9.087 9.087 0 011.893 5.839 10.254 10.254 0 01-3.093 7.65 10.612 10.612 0 01-7.726 3.044 10.34 10.34 0 01-7.225-2.588 11.911 11.911 0 01-3.5-7.285l5.13-1.13a8.724 8.724 0 001.221 4.088 5.794 5.794 0 008.509.587 5.49 5.49 0 001.567-4.023 5.641 5.641 0 00-.276-1.794 4.551 4.551 0 00-.849-1.5 6.782 6.782 0 00-1.488-1.288 14.366 14.366 0 00-2.177-1.137l-3.243-1.349q-6.9-2.914-6.9-8.524a8.085 8.085 0 012.895-6.328 10.463 10.463 0 017.2-2.566q5.815.004 9.08 5.654zm25.528-.239h-13.471v8.068h13.08v4.762h-13.08v11.221h13.472v4.762h-18.547V18.021h18.542zm29.685 0v28.813h-5.071V22.784h-7.726v-4.762h20.5v4.762zm30.773 0h-13.47v8.068h13.08v4.762h-13.08v11.221h13.472v4.762h-18.543V18.021h18.542zm5.484 28.813l7.073-36.1 11.539 26.097 11.948-26.1 6.355 36.1h-5.2l-3.247-20.264-9.946 21.811-9.663-21.833-3.613 20.289zm49.1-13.635v13.635h-5.071V18.021h5.746a25.935 25.935 0 016.377.587 8.553 8.553 0 013.83 2.218 9.551 9.551 0 012.895 7.133 9.2 9.2 0 01-3.09 7.307 12.235 12.235 0 01-8.335 2.7zm0-4.7h1.893q6.986 0 6.986-5.371 0-5.2-7.2-5.2h-1.676zm24.07-15.244v28.817h9.881v4.762h-14.952V18.021zm36.3 25.421h-14.384l-3.743 8.155h-5.463l16.627-35.685 16.04 35.685h-5.55zm-2.068-4.762L361.5 27.263l-5.223 11.417zm22.743-15.9v28.82h-5.071V22.784h-7.726v-4.762h20.5v4.762zm30.773 0h-13.47v8.068h13.08v4.769h-13.08v11.221H420v4.762h-18.543V18.021h18.542zM34.5 58.567A20.283 20.283 0 0120.7 64C9.267 64 0 54.449 0 42.667a21.309 21.309 0 0113.833-20.132q-.032-.6-.032-1.2C13.8 9.551 23.068 0 34.5 0s20.7 9.551 20.7 21.333q0 .605-.032 1.2A21.309 21.309 0 0169 42.667C69 54.449 59.733 64 48.3 64a20.283 20.283 0 01-13.8-5.433z" fill="#ef6d58"/></svg>